<?xml version="1.0" encoding="UTF-8"?>
<svg width="96px" height="38px" viewBox="0 0 96 38" version="1.1" xmlns="http://www.w3.org/2000/svg" xmlns:xlink="http://www.w3.org/1999/xlink">
    <!-- Generator: Sketch 51.2 (57519) - http://www.bohemiancoding.com/sketch -->
    <title>SilvaCareLogo</title>
    <desc>Created with Sketch.</desc>
    <defs></defs>
    <g id="Silva-Care" stroke="none" stroke-width="1" fill="none" fill-rule="evenodd">
        <g id="SilvaCareLogo" transform="translate(0.000000, -3.000000)">
            <g id="Group-16">
                <path d="M52.2300201,14.0192931 C51.7090482,13.816522 51.2417129,13.594257 50.828,13.3524914 C50.4142871,13.1107258 50.0618702,12.8221712 49.7707389,12.486819 C49.4796076,12.1514667 49.2536012,11.7498299 49.0927128,11.2818966 C48.9318245,10.8139632 48.8513815,10.2524516 48.8513815,9.59734483 C48.8513815,8.80185809 48.9854531,8.09996856 49.2536004,7.49165517 C49.5217476,6.88334179 49.9009788,6.37252218 50.3913052,5.95918103 C50.8816316,5.54583989 51.4715467,5.23388898 52.1610683,5.02331897 C52.8505898,4.81274895 53.6243745,4.70746552 54.4824458,4.70746552 C55.2639035,4.70746552 55.9955515,4.77765447 56.6774116,4.91803448 C57.3592718,5.05841449 58.0755973,5.26118258 58.8264096,5.52634483 C58.7344734,6.43101602 58.4893139,7.32007609 58.0909237,8.19355172 C57.8610832,8.09996505 57.6274155,8.00637978 57.3899136,7.9127931 C57.1524118,7.81920643 56.899591,7.7412187 56.6314438,7.67882759 C56.3632965,7.61643647 56.0606777,7.56574445 55.7235783,7.52675 C55.3864789,7.48775555 55.0034171,7.46825862 54.5743815,7.46825862 C54.3138956,7.46825862 54.049583,7.49165494 53.7814357,7.53844828 C53.5132885,7.58524161 53.2719596,7.67102811 53.0574417,7.79581034 C52.8429239,7.92059258 52.6667155,8.10386373 52.5288112,8.34562931 C52.3909069,8.58739489 52.3219558,8.90324518 52.3219558,9.29318966 C52.3219558,9.60514524 52.3755844,9.86640412 52.4828434,10.0769741 C52.5901023,10.2875442 52.7356657,10.4669159 52.9195381,10.6150948 C53.1034105,10.7632737 53.3102639,10.8880541 53.5401044,10.9894397 C53.7699449,11.0908252 53.999782,11.1883099 54.2296225,11.2818966 L55.6086586,11.8200172 C56.1909212,12.0539839 56.7195465,12.2957459 57.1945502,12.5453103 C57.6695539,12.7948748 58.0717687,13.1029263 58.4012068,13.4694741 C58.7306449,13.8360219 58.9872962,14.280552 59.1711687,14.8030776 C59.3550411,15.3256032 59.4469759,15.9690019 59.4469759,16.7332931 C59.4469759,17.5287798 59.305243,18.2540657 59.0217731,18.9091724 C58.7383031,19.5642791 58.328427,20.1257908 57.7921325,20.5937241 C57.255838,21.0616575 56.5931411,21.4281998 55.8040221,21.6933621 C55.014903,21.9585243 54.1070466,22.0911034 53.0804257,22.0911034 C52.5747766,22.0911034 52.1227637,22.0755059 51.7243735,22.0443103 C51.3259833,22.0131148 50.9467521,21.9624228 50.5866687,21.8922328 C50.2265852,21.8220428 49.8703378,21.7323569 49.5179156,21.6231724 C49.1654935,21.513988 48.7977542,21.3814088 48.4146867,21.225431 C48.4606548,20.7730954 48.5449284,20.3012697 48.66751,19.8099397 C48.7900916,19.3186096 48.9356551,18.8233876 49.1042048,18.3242586 C49.7477582,18.5894209 50.3529958,18.7882896 50.9199357,18.9208707 C51.4868756,19.0534518 52.0921132,19.1197414 52.7356666,19.1197414 C53.7009968,19.1197414 54.4594591,18.9364702 55.0110763,18.5699224 C55.5626935,18.2033746 55.838498,17.6457624 55.838498,16.897069 C55.838498,16.5227223 55.7733775,16.2107714 55.6431345,15.9612069 C55.5128916,15.7116424 55.3443444,15.5010756 55.1374879,15.3295 C54.9306315,15.1579244 54.6969638,15.0136471 54.4364779,14.8966638 C54.175992,14.7796804 53.9078487,14.6665982 53.6320401,14.5574138 L52.2300201,14.0192931 Z M62.0052048,12.2411552 L60.4652811,12.2411552 C60.419313,12.038384 60.3848375,11.8239178 60.3618534,11.59775 C60.3388694,11.3715822 60.3273775,11.157116 60.3273775,10.9543448 C60.3273775,10.5332048 60.3733449,10.1198698 60.4652811,9.71432759 L65.1999719,9.71432759 L65.1999719,21.8103448 C64.6483547,21.9039315 64.1120682,21.9507241 63.5910964,21.9507241 C63.0854473,21.9507241 62.556822,21.9039315 62.0052048,21.8103448 L62.0052048,12.2411552 Z M61.5225422,7.67882759 C61.430606,7.1485031 61.3846385,6.62598533 61.3846385,6.11125862 C61.3846385,5.61212969 61.430606,5.08961192 61.5225422,4.54368966 C61.7830281,4.49689632 62.0626632,4.46180184 62.3614558,4.43840517 C62.6602485,4.4150085 62.9322223,4.40331034 63.1773855,4.40331034 C63.4378714,4.40331034 63.7213371,4.4150085 64.0277912,4.43840517 C64.3342452,4.46180184 64.6177109,4.49689632 64.8781968,4.54368966 C64.9241649,4.8088519 64.9548098,5.07011078 64.9701325,5.32747414 C64.9854552,5.58483749 64.9931165,5.84609638 64.9931165,6.11125862 C64.9931165,6.36082309 64.9854552,6.61818258 64.9701325,6.88334483 C64.9548098,7.14850707 64.9241649,7.41366534 64.8781968,7.67882759 C64.6177109,7.72562092 64.3380758,7.75681601 64.0392831,7.77241379 C63.7404905,7.78801157 63.4608554,7.79581034 63.2003695,7.79581034 C62.9552063,7.79581034 62.6794018,7.78801157 62.3729478,7.77241379 C62.0664938,7.75681601 61.7830281,7.72562092 61.5225422,7.67882759 Z M67.8271526,4.70746552 C68.3787698,4.61387884 68.9227175,4.56708621 69.459012,4.56708621 C69.9799839,4.56708621 70.5162703,4.61387884 71.0678876,4.70746552 L71.0678876,16.9906552 C71.0678876,17.4741863 71.0947019,17.864125 71.1483313,18.1604828 C71.2019608,18.4568406 71.2862344,18.6869044 71.4011546,18.850681 C71.5160749,19.0144577 71.665469,19.1275399 71.8493414,19.189931 C72.0332138,19.2523222 72.2630508,19.2835172 72.5388594,19.2835172 C72.661441,19.2835172 72.7955127,19.2757185 72.9410783,19.2601207 C73.086644,19.2445229 73.2283768,19.2211266 73.3662811,19.189931 C73.5348308,19.82944 73.6191044,20.4533418 73.6191044,21.0616552 L73.6191044,21.4009052 C73.6191044,21.5022907 73.6037819,21.6153729 73.5731365,21.7401552 C73.3279733,21.8181441 73.0330158,21.8727355 72.688255,21.903931 C72.3434943,21.9351266 72.025553,21.9507241 71.7344217,21.9507241 C70.5545738,21.9507241 69.6084112,21.6192763 68.8959056,20.9563707 C68.1834001,20.2934651 67.8271526,19.2133351 67.8271526,17.7159483 L67.8271526,4.70746552 Z M73.0285341,9.73772414 C73.396279,9.65973524 73.7372039,9.61294261 74.0513193,9.59734483 C74.3654346,9.58174705 74.6374085,9.57394828 74.867249,9.57394828 C75.173703,9.57394828 75.4801524,9.58174705 75.7866064,9.59734483 C76.0930604,9.61294261 76.3765262,9.65193647 76.6370121,9.71432759 L79.2341968,18.722 L81.7854137,9.71432759 C82.0458996,9.66753425 82.321704,9.63243977 82.6128354,9.6090431 C82.9039667,9.58564643 83.1950936,9.57394828 83.4862249,9.57394828 C83.7160654,9.57394828 83.980378,9.58174705 84.2791707,9.59734483 C84.5779634,9.61294261 84.9188883,9.65973524 85.3019558,9.73772414 L80.7971044,21.8103448 C80.5059731,21.8571382 80.1995237,21.8883333 79.877747,21.903931 C79.5559703,21.9195288 79.2878271,21.9273276 79.0733092,21.9273276 C78.8434687,21.9273276 78.5829867,21.9195288 78.2918554,21.903931 C78.0007241,21.8883333 77.7249197,21.8493394 77.4644337,21.7869483 L73.0285341,9.73772414 Z M92.4569719,16.2653621 C92.2730995,16.2341665 92.0739074,16.2068708 91.8593896,16.1834741 C91.6448718,16.1600775 91.4533409,16.1483793 91.2847912,16.1483793 C90.5339789,16.1483793 89.9402331,16.2848578 89.5035362,16.557819 C89.0668392,16.8307801 88.848494,17.2714108 88.848494,17.8797241 C88.848494,18.2852664 88.9327676,18.5972173 89.1013173,18.8155862 C89.269867,19.0339551 89.4728897,19.19383 89.7103916,19.2952155 C89.9478934,19.3966011 90.2007142,19.4589913 90.4688615,19.4823879 C90.7370087,19.5057846 90.9706764,19.5174828 91.1698715,19.5174828 C91.399712,19.5174828 91.6295491,19.4979858 91.8593896,19.4589914 C92.0892301,19.4199969 92.2884222,19.3849025 92.4569719,19.3537069 L92.4569719,16.2653621 Z M92.4569719,13.8555172 C92.4569719,13.4811705 92.395682,13.1770184 92.2731004,12.9430517 C92.1505188,12.709085 91.9819716,12.5258139 91.7674538,12.3932328 C91.552936,12.2606516 91.2886234,12.1709658 90.9745081,12.1241724 C90.6603927,12.0773791 90.3118065,12.0539828 89.928739,12.0539828 C89.1013132,12.0539828 88.2202711,12.217757 87.2855864,12.5453103 C87.0710686,12.1397681 86.9101826,11.7576282 86.8029237,11.3988793 C86.6956648,11.0401304 86.6420362,10.6111979 86.6420362,10.112069 C87.316235,9.87810228 87.9904237,9.70652928 88.6646225,9.59734483 C89.3388213,9.48816037 89.9670426,9.43356897 90.5493052,9.43356897 C92.1428661,9.43356897 93.3878168,9.82350759 94.2841948,10.6033966 C95.1805728,11.3832855 95.628755,12.6310891 95.628755,14.3468448 L95.628755,21.3658103 C95.0924605,21.5373859 94.4412555,21.7011601 93.6751205,21.8571379 C92.9089855,22.0131157 92.0432659,22.0911034 91.0779358,22.0911034 C90.296478,22.0911034 89.5801525,22.0209145 88.9289378,21.8805345 C88.277723,21.7401545 87.7184528,21.5061913 87.2511105,21.1786379 C86.7837681,20.8510846 86.42369,20.4299508 86.1708655,19.9152241 C85.9180409,19.4004974 85.7916305,18.7687968 85.7916305,18.0201034 C85.7916305,17.27141 85.9486859,16.6436089 86.2628012,16.136681 C86.5769166,15.6297532 86.9829621,15.224217 87.4809498,14.9200603 C87.9789376,14.6159037 88.5343771,14.397538 89.1472852,14.2649569 C89.7601932,14.1323758 90.373092,14.0660862 90.986,14.0660862 C91.4303583,14.0660862 91.9206774,14.0894825 92.4569719,14.1362759 L92.4569719,13.8555172 Z" id="Silva-Copy" fill="#706F6F"></path>
                <path d="M66.7983294,38.5543448 C66.8749429,38.7103226 66.9477246,38.9208895 67.0166767,39.1860517 C67.0856289,39.451214 67.1354269,39.6695796 67.1660723,39.8411552 C66.7830048,39.9815352 66.3463144,40.0985168 65.855988,40.1921034 C65.3656616,40.2856901 64.8217139,40.3324828 64.2241286,40.3324828 C62.308791,40.3324828 60.8531563,39.7982668 59.8571808,38.729819 C58.8612052,37.6613711 58.3632249,36.1133147 58.3632249,34.0856034 C58.3632249,33.19653 58.4858047,32.3737595 58.7309679,31.6172672 C58.9761311,30.860775 59.3362092,30.2017787 59.8112129,29.6402586 C60.2862166,29.0787386 60.8799623,28.6381079 61.5924679,28.3183534 C62.3049735,27.998599 63.1285563,27.8387241 64.063241,27.8387241 C64.6455036,27.8387241 65.2009432,27.8816174 65.7295763,27.9674052 C66.2582095,28.053193 66.6757468,28.1506776 66.9822008,28.2598621 C66.9822008,28.4626332 66.9553865,28.6965964 66.9017571,28.9617586 C66.8481276,29.2269209 66.7906684,29.4374877 66.7293775,29.5934655 C66.4229235,29.4842811 66.0360312,29.3906958 65.5686888,29.3127069 C65.1013464,29.234718 64.5995355,29.1957241 64.063241,29.1957241 C63.3737195,29.1957241 62.7723125,29.3166051 62.259002,29.5583707 C61.7456916,29.8001363 61.3166624,30.1393829 60.9719016,30.5761207 C60.6271409,31.0128585 60.3704895,31.5275775 60.2019398,32.1202931 C60.0333901,32.7130087 59.9491165,33.3681056 59.9491165,34.0856034 C59.9491165,35.7701636 60.3436701,37.0062691 61.1327892,37.7939569 C61.9219083,38.5816447 62.9906506,38.9754828 64.3390482,38.9754828 C64.7987292,38.9754828 65.2392503,38.9364889 65.6606245,38.8585 C66.0819988,38.7805111 66.4612299,38.6791271 66.7983294,38.5543448 Z M75.281739,34.2493793 C75.0212531,34.2181838 74.6956506,34.1830893 74.3049217,34.1440948 C73.9141928,34.1051004 73.5426229,34.0856034 73.1902008,34.0856034 C72.0409983,34.0856034 71.152295,34.3039691 70.5240643,34.7407069 C69.8958336,35.1774447 69.5817229,35.8013465 69.5817229,36.612431 C69.5817229,37.1271577 69.6774883,37.5404927 69.8690221,37.8524483 C70.0605559,38.1644039 70.309546,38.4022664 70.616,38.5660431 C70.922454,38.7298198 71.2595484,38.8390026 71.6272932,38.8935948 C71.995038,38.9481871 72.3627773,38.9754828 72.7305221,38.9754828 C73.2055258,38.9754828 73.6498775,38.9520864 74.0635904,38.9052931 C74.4773033,38.8584998 74.8833488,38.7961096 75.281739,38.7181207 L75.281739,34.2493793 Z M75.281739,32.1670862 C75.281739,31.1376328 75.0442407,30.3850512 74.569237,29.909319 C74.0942332,29.4335867 73.3893996,29.1957241 72.4547149,29.1957241 C71.8418069,29.1957241 71.2825367,29.2386174 70.7768876,29.3244052 C70.2712384,29.410193 69.8192256,29.5154764 69.4208354,29.6402586 C69.3442219,29.4998786 69.2791014,29.2971105 69.2254719,29.0319483 C69.1718424,28.766786 69.1450281,28.5172253 69.1450281,28.2832586 C69.5434183,28.1584764 70.0337374,28.053193 70.616,27.9674052 C71.1982626,27.8816174 71.795839,27.8387241 72.408747,27.8387241 C73.8950489,27.8387241 74.9982668,28.170172 75.7184337,28.8330776 C76.4386007,29.4959832 76.7986787,30.5371193 76.7986787,31.9565172 L76.7986787,39.8411552 C76.2623842,39.9503396 75.6111792,40.0595224 74.8450442,40.1687069 C74.0789092,40.2778914 73.3510918,40.3324828 72.6615703,40.3324828 C71.2365592,40.3324828 70.1141882,40.0439282 69.2944237,39.4668103 C68.4746592,38.8896925 68.0647831,37.9538398 68.0647831,36.6592241 C68.0647831,36.035313 68.1835323,35.4777007 68.4210341,34.9863707 C68.658536,34.4950406 68.9879691,34.0817057 69.4093434,33.7463534 C69.8307176,33.4110012 70.3363592,33.1575411 70.9262831,32.9859655 C71.5162071,32.8143899 72.1635815,32.7286034 72.8684257,32.7286034 C73.4200429,32.7286034 73.8950395,32.7481004 74.2934297,32.7870948 C74.6918199,32.8260893 75.0212531,32.8611838 75.281739,32.8923793 L75.281739,32.1670862 Z M79.3752169,28.1194828 C79.4977985,28.103885 79.6165476,28.0921868 79.7314679,28.0843879 C79.8463881,28.076589 79.957476,28.0726897 80.0647349,28.0726897 C80.1873165,28.0726897 80.3022351,28.076589 80.409494,28.0843879 C80.5167529,28.0921868 80.6316714,28.103885 80.754253,28.1194828 C80.7848984,28.4002428 80.8078821,28.7316906 80.8232048,29.1138362 C80.8385275,29.4959818 80.8461887,29.8430272 80.8461887,30.1549828 C81.1526428,29.5778649 81.5816719,29.0904416 82.1332891,28.6926983 C82.6849064,28.2949549 83.4127237,28.0960862 84.316763,28.0960862 L84.5580944,28.0960862 C84.6423692,28.0960862 84.7381347,28.103885 84.8453936,28.1194828 C84.8913617,28.384645 84.9143454,28.6342057 84.9143454,28.8681724 C84.9143454,29.1177369 84.8913617,29.3594988 84.8453936,29.5934655 C84.722812,29.5778677 84.6270465,29.570069 84.5580944,29.570069 L84.339747,29.570069 C83.2978033,29.570069 82.4627287,29.9054162 81.834498,30.5761207 C81.2062673,31.2468252 80.8921566,32.3620497 80.8921566,33.9218276 L80.8921566,40.0517241 C80.8002204,40.0673219 80.67381,40.0790201 80.5129217,40.086819 C80.3520333,40.0946179 80.2256229,40.0985172 80.1336867,40.0985172 C80.0570732,40.0985172 79.9344935,40.0946179 79.7659438,40.086819 C79.5973941,40.0790201 79.4671531,40.0673219 79.3752169,40.0517241 L79.3752169,28.1194828 Z M87.1461245,34.319569 C87.1461245,35.9105424 87.5062025,37.0803583 88.2263694,37.8290517 C88.9465364,38.5777451 90.0267705,38.9520862 91.4671044,38.9520862 C92.049367,38.9520862 92.5894841,38.9013942 93.0874718,38.8000086 C93.5854596,38.6986231 94.0719481,38.5621445 94.5469518,38.390569 C94.6235653,38.5621445 94.6848552,38.7727114 94.7308233,39.0222759 C94.7767914,39.2718403 94.8074363,39.4980047 94.822759,39.7007759 C94.3784007,39.903547 93.8574367,40.0595224 93.2598514,40.1687069 C92.662266,40.2778914 92.011061,40.3324828 91.3062168,40.3324828 C90.2949186,40.3324828 89.4253684,40.1804067 88.6975401,39.87625 C87.9697119,39.5720933 87.3721355,39.1470602 86.9047931,38.6011379 C86.4374508,38.0552157 86.0926952,37.4040182 85.870516,36.6475259 C85.6483369,35.8910336 85.537249,35.0604643 85.537249,34.1557931 C85.537249,33.2823175 85.6406756,32.4634464 85.8475321,31.6991552 C86.0543885,30.934864 86.3684992,30.2641696 86.7898735,29.6870517 C87.2112477,29.1099339 87.7513648,28.6576051 88.4102409,28.3300517 C89.069117,28.0024984 89.8582243,27.8387241 90.7775863,27.8387241 C91.5437213,27.8387241 92.2255713,27.9713033 92.8231566,28.2364655 C93.4207419,28.5016278 93.9225528,28.8720695 94.3286044,29.3478017 C94.7346559,29.823534 95.0411054,30.3928444 95.2479618,31.05575 C95.4548183,31.7186556 95.5582449,32.4400421 95.5582449,33.219931 C95.5582449,33.360311 95.5544143,33.5396828 95.546753,33.7580517 C95.5390916,33.9764206 95.5275998,34.1635912 95.5122771,34.319569 L87.1461245,34.319569 Z M94.0413052,33.0327586 C94.0413052,32.5492275 93.9800153,32.0735023 93.8574337,31.605569 C93.7348521,31.1376356 93.5433212,30.7282 93.2828353,30.37725 C93.0223494,30.0263 92.685255,29.7416448 92.2715421,29.5232759 C91.8578292,29.304907 91.3598489,29.1957241 90.7775863,29.1957241 C89.7049973,29.1957241 88.8699226,29.5310714 88.2723373,30.2017759 C87.674752,30.8724804 87.3146739,31.8161318 87.1920923,33.0327586 L94.0413052,33.0327586 Z" id="care-copy" fill="#706F6F"></path>
                <path d="M23.373494,13.0862069 C25.2194573,13.0004939 26.6478374,13.0004939 27.6586345,13.0862069 C27.6586345,11.6724534 28.325447,9.41084372 30.3855422,8.1000724 C31.1737736,7.59854645 32.3545863,6.9781873 33.502008,6.9781873 C35.6215432,6.9781873 36.978376,7.59581848 38.0178782,8.58569336 C39.0118745,9.53223493 39.7349398,10.7981894 39.7349398,13.0862069 C39.7349398,16.2067282 37.5274431,18.3794044 33.1124498,19.6042354 L36.6184739,22.2068966 C41.2931727,20.3563218 43.6305221,17.316092 43.6305221,13.0862069 C43.6305221,6.74137931 39.7349398,3.17241379 33.8915663,3.17241379 C31.3369703,3.17241379 28.0901298,4.19506756 26.1424389,6.37464642 C24.551616,8.15486934 23.6286343,10.3920562 23.373494,13.0862069 Z" id="Path-8-Copy" fill="#009FE3" fill-rule="nonzero"></path>
                <path d="M30.3855422,20.6206897 C31.3475811,21.427928 32.5629533,22.3544094 34.0316589,23.4001339 C29.4838328,24.6650461 27.2099198,26.8642171 27.2099198,29.997647 C27.2099198,34.6977918 30.9790098,35.9131996 33.8915663,35.9131996 C36.8041227,35.9131996 39.0690006,33.8652849 39.7349398,29.5267418 C41.1767617,29.5267418 41.9235418,29.5267418 43.6305221,29.5267418 C43.6305221,34.0518462 40.851686,39.9114401 33.8915663,39.9114401 C26.9314465,39.9114401 23.373494,34.4767645 23.373494,29.997647 C23.373494,25.5185294 25.7903528,22.7537042 30.3855422,20.6206897 Z" id="Path-9-Copy" fill="#F9B233" fill-rule="nonzero"></path>
                <path d="M21.1490366,13.0862069 C20.2783321,8.59140541 16.863896,3.17241379 10.7681086,3.17241379 C6.69971684,3.17241379 0.389558233,5.84981563 0.389558233,13.0862069 C0.389558233,17.3889788 2.49332486,20.325309 7.12494019,22.2068966 C10.0627,20.2213303 9.15718636,20.7727851 11.03165,19.5831299 C7.65896594,18.541988 4.2720158,17.4748998 4.2720158,13.0862069 C4.2720158,8.69751397 7.29346978,6.86520491 10.7681086,7.01749394 C14.2427474,7.16978297 16.2583498,9.45954001 16.863896,13.0862069 C18.6388778,13.0862069 20.1365276,13.0862069 21.1490366,13.0862069 Z" id="Path-10-Copy" fill="#951B81" fill-rule="nonzero"></path>
                <path d="M10.1285141,23.4744873 C12.476135,21.5580465 12.6484689,21.7328933 13.9421142,20.6206897 C18.5690692,23.4619982 20.6437331,24.4932651 20.8836881,29.9941617 C21.0133048,32.9655867 19.4363416,35.7373437 17.143891,37.4928231 C15.1924069,38.9872022 12.747243,39.6956408 10.1285141,39.6956408 C4.43350747,39.6956408 0.49740956,34.5230418 0,29.9941617 C2.28770355,29.9941617 2.42950807,29.9941617 4.28514056,29.9941617 C4.28514056,32.8201736 6.31491395,36.0385742 10.1285141,36.0385742 C13.9421142,36.0385742 17.143891,33.5368905 17.143891,29.9941617 C17.143891,26.4514329 13.9421142,24.5507728 10.1285141,23.4744873 Z" id="Path-11-Copy" fill="#94C11F" fill-rule="nonzero"></path>
            </g>
        </g>
    </g>
</svg>